<svg xmlns="http://www.w3.org/2000/svg" width="430" height="430" fill="none" viewBox="0 0 430 430"><g fill-rule="evenodd" clip-rule="evenodd"><path fill="url(#YBtY1j-jnGa)" d="M74 246a6 6 0 0 1 6-6h70a6 6 0 0 1 6 6v130a6 6 0 0 1-6 6H80a6 6 0 0 1-6-6zm12 6v118h58V252z"/><path fill="url(#Ci3IIQKmzQb)" d="M174 141a6 6 0 0 1 6-6h70a6 6 0 0 1 6 6v235a6 6 0 0 1-6 6h-70a6 6 0 0 1-6-6zm12 6v223h58V147z"/><path fill="url(#ugTSCtNBEnc)" d="M274 56a6 6 0 0 1 6-6h70a6 6 0 0 1 6 6v320a6 6 0 0 1-6 6h-70a6 6 0 0 1-6-6zm12 6v308h58V62z"/><path fill="url(#neN4NBIqAfd)" d="M381 376a6 6 0 0 0-6-6H55a6 6 0 1 0 0 12h320a6 6 0 0 0 6-6"/></g><defs><linearGradient id="YBtY1j-jnGa" x1="157.605" x2="334.781" y1="123.729" y2="323.296" gradientUnits="userSpaceOnUse"><stop stop-color="#cb5eee"/><stop offset="1" stop-color="#4be1ec"/></linearGradient><linearGradient id="Ci3IIQKmzQb" x1="157.605" x2="334.781" y1="123.729" y2="323.296" gradientUnits="userSpaceOnUse"><stop stop-color="#cb5eee"/><stop offset="1" stop-color="#4be1ec"/></linearGradient><linearGradient id="ugTSCtNBEnc" x1="157.605" x2="334.781" y1="123.729" y2="323.296" gradientUnits="userSpaceOnUse"><stop stop-color="#cb5eee"/><stop offset="1" stop-color="#4be1ec"/></linearGradient><linearGradient id="neN4NBIqAfd" x1="157.605" x2="334.781" y1="123.729" y2="323.296" gradientUnits="userSpaceOnUse"><stop stop-color="#cb5eee"/><stop offset="1" stop-color="#4be1ec"/></linearGradient></defs></svg>