<svg xmlns="http://www.w3.org/2000/svg" width="430" height="430" fill="none" viewBox="0 0 430 430"><path fill="url(#_h5heESsKza)" fill-rule="evenodd" d="M217.525 83.058a6 6 0 0 0-5.051 0l-181.1 84.05a5.999 5.999 0 0 0 0 10.884l34.742 16.124-34.853 17.044a6 6 0 0 0 .11 10.832l35.516 16.484-35.626 17.421a6.002 6.002 0 0 0 .11 10.833l181.1 84.05a6 6 0 0 0 5.051 0l181.1-84.05a5.999 5.999 0 0 0 .016-10.878l-36.352-16.996 36.336-16.864a5.999 5.999 0 0 0 .016-10.878l-35.559-16.625 35.544-16.497a5.998 5.998 0 0 0 0-10.884zm131.337 118.03-131.337 60.954a6 6 0 0 1-5.051 0L80.131 200.621l-32.285 15.787 167.152 77.577 166.891-77.455zM84.767 189.543 215 249.985l166.848-77.435L215 95.115 48.152 172.55l32.814 15.229a6.02 6.02 0 0 1 3.801 1.764m132.757 116.499 130.545-60.587 33.82 15.812-166.891 77.456-167.152-77.577 33.059-16.166 131.568 61.062a6 6 0 0 0 5.051 0" clip-rule="evenodd"/><defs><linearGradient id="_h5heESsKza" x1="150.309" x2="217.954" y1="142.202" y2="317.931" gradientUnits="userSpaceOnUse"><stop stop-color="#CA5EEE"/><stop offset="1" stop-color="#4be1ec"/></linearGradient></defs></svg>