<svg xmlns="http://www.w3.org/2000/svg" width="430" height="430" fill="none" viewBox="0 0 430 430"><path fill="url(#Fa2SeXwEJPa)" d="M387.1 215.1c0-52.2-23.4-99-60.2-130.6-.4-.4-.9-.8-1.4-1.1-29.8-25-68.2-40.2-110-40.3h-.9c-41.9 0-80.2 15.2-110.1 40.2-.5.3-.9.7-1.3 1.1C66.4 116 43 162.8 43 215v.2c0 52.2 23.4 99 60.2 130.5.4.4.8.8 1.3 1.1 29.9 25.1 68.5 40.3 110.5 40.3s80.6-15.2 110.5-40.3c.5-.3 1-.7 1.4-1.1 36.8-31.6 60.2-78.4 60.2-130.6m-65.7 119.4c-6.6-3.3-13.5-6.2-20.7-8.8 16-29.4 25.1-65.9 26-104.7H375c-1.7 45.1-22 85.4-53.6 113.5M149.5 332c18.8-5.1 39.2-8 60-8.5-.1 22.9-.2 39.1-.3 51.3-22.3-2.3-43.2-17.3-59.7-42.8m71.6 42.8c.1-12.1.2-28.4.3-51.3 21.3.5 42.1 3.6 61.3 9-16.4 24.4-37.9 40-61.6 42.3m.4-63.3c.1-23.3.1-52.8.1-90.5h93.1c-.9 38.7-10.4 73.9-25.5 100.9-21.1-6.2-44.1-9.8-67.7-10.4m.1-102.4c0-41.4-.1-68.3-.2-90.5 23.6-.6 46.7-4.1 67.8-10.4 15.1 27 24.6 62.2 25.5 100.9zm-.2-102.5c-.1-9.7-.1-18.7-.2-28.1 0-7.3-.1-14.9-.1-23.2 23.7 2.3 45.2 17.9 61.6 42.3-19.1 5.4-40 8.5-61.3 9m-12.3-51.3c.1 8.3.1 16 .1 23.3.1 9.3.1 18.4.2 28-20.8-.4-41.2-3.4-59.9-8.5 16.5-25.6 37.4-40.5 59.6-42.8m.3 63.3c.1 22.2.2 49.1.2 90.5h-90.9c.8-37.3 9.4-72.4 24.4-100.3 20.8 6 43.3 9.3 66.3 9.8m.2 102.5c0 37.7-.1 67.1-.1 90.5-23.1.5-45.6 3.8-66.3 9.8-15-27.9-23.6-62.9-24.4-100.2zm-72.1 114.5c7.7 12.5 16.4 22.8 25.8 30.9-16.1-5.5-31-13.5-44.4-23.6 6-2.7 12.2-5.1 18.6-7.3m157 .7c5.8 2 11.3 4.2 16.7 6.7-12.6 9.5-26.6 17.2-41.7 22.6 9.1-7.8 17.5-17.6 25-29.3M375 209.1h-48.3c-.9-38.7-9.9-75.3-26-104.7 7.2-2.6 14.1-5.5 20.7-8.8C353 123.7 373.3 164 375 209.1M311.2 87.2c-5.4 2.4-10.9 4.7-16.7 6.7-7.5-11.7-16-21.5-25-29.3 15.1 5.4 29.1 13.1 41.7 22.6m-173.6 7.3c-6.4-2.2-12.7-4.6-18.6-7.3 13.3-10 28.3-18.1 44.4-23.6-9.5 8.1-18.2 18.4-25.8 30.9m-28.9 1.1c7.2 3.6 14.9 6.7 22.8 9.5-15.3 29.3-24 65.5-24.8 103.9H55.1c1.7-45 22.1-85.3 53.6-113.4M55.1 221.1h51.6c.8 38.4 9.5 74.7 24.8 103.9-8 2.8-15.6 6-22.8 9.5-31.5-28.1-51.9-68.4-53.6-113.4"/><defs><linearGradient id="Fa2SeXwEJPa" x1="93.4614" x2="336.648" y1="93.4579" y2="336.644" gradientUnits="userSpaceOnUse"><stop stop-color="#cb5eee"/><stop offset="1" stop-color="#4be1ec"/></linearGradient></defs></svg>