<svg xmlns="http://www.w3.org/2000/svg" width="430" height="430" fill="none" viewBox="0 0 430 430"><path fill="url(#A57ehDITk9a)" d="M145.064 94a6 6 0 1 0 0 12h9.108a6 6 0 1 0 0-12z"/><path fill="url(#yRBnc7nCnyb)" d="M184.957 94a6 6 0 1 0 0 12H285a6 6 0 1 0 0-12z"/><path fill="url(#58JOvNqH6Wc)" d="M145.064 130.179a6 6 0 1 0 0 12h65.652a6 6 0 0 0 0-12z"/><path fill="url(#jk1bi2iGMld)" d="M241.5 130.18a6 6 0 1 0 0 12H285a6 6 0 1 0 0-12z"/><path fill="url(#wYrbOnRypHe)" d="M262.015 166.13a6 6 0 1 0 0 12H285a6 6 0 1 0 0-12z"/><path fill="url(#6qT7f_8vZPf)" d="M145.064 166.131a6 6 0 0 0 0 12h86.166a6 6 0 1 0 0-12z"/><path fill="url(#cYH1ZSxHK3g)" d="M210.03 202.08a6 6 0 1 0 0 12H285a6 6 0 1 0 0-12z"/><path fill="url(#I_fim3sLJIh)" d="M145.064 202.084a6 6 0 0 0 0 12h34.182a6 6 0 0 0 0-12z"/><path fill="url(#aO9NuPktCNi)" d="M145 238.037a6 6 0 1 0 0 12l108.732.003a6 6 0 0 0 .001-12z"/><path fill="url(#EckicD4pOIj)" d="M284.508 238.04a6 6 0 1 0 0 12h.419a6 6 0 1 0 0-12z"/><path fill="url(#FUstskdddfk)" d="M145 274a6 6 0 1 0 0 12h40.579a6 6 0 0 0 0-12z"/><path fill="url(#QZVLsvTbNql)" d="M216.354 274a6 6 0 1 0 0 12h68.573a6 6 0 1 0 0-12z"/><path fill="url(#4ZCZprs5Qom)" fill-rule="evenodd" d="M109 75c0-8.836 7.163-16 16-16h180c8.837 0 16 7.163 16 16v230c0 8.837-7.163 16-16 16H125c-8.837 0-16-7.163-16-16zm16-4a4 4 0 0 0-4 4v230a4 4 0 0 0 4 4h180a4 4 0 0 0 4-4V75a4 4 0 0 0-4-4z" clip-rule="evenodd"/><path fill="url(#yNojKiB5wmn)" d="M214.96 342c-7.854 0-14.21 6.356-14.21 14.21 0 7.858 6.371 14.21 14.21 14.21 7.858 0 14.21-6.371 14.21-14.21 0-7.858-6.371-14.21-14.21-14.21"/><path fill="url(#9wVQ1E5TCFo)" d="M166.72 345.41c-5.964 0-10.8 4.836-10.8 10.8s4.836 10.8 10.8 10.8 10.8-4.836 10.8-10.8-4.836-10.8-10.8-10.8"/><path fill="url(#x_yq3Z2g13p)" d="M263.2 345.41c-5.964 0-10.8 4.836-10.8 10.8s4.836 10.8 10.8 10.8 10.8-4.836 10.8-10.8c0-5.956-4.818-10.8-10.8-10.8"/><path fill="url(#3lfwlm9qM-q)" fill-rule="evenodd" d="M74 50c0-14.36 11.64-26 26-26h230c14.359 0 26 11.64 26 26v330c0 14.359-11.641 26-26 26H100c-14.36 0-26-11.641-26-26zm26-14c-7.732 0-14 6.268-14 14v330c0 7.732 6.268 14 14 14h230c7.732 0 14-6.268 14-14V50c0-7.732-6.268-14-14-14z" clip-rule="evenodd"/><defs><linearGradient id="A57ehDITk9a" x1="63.5193" x2="378.912" y1="57.1541" y2="359.873" gradientUnits="userSpaceOnUse"><stop stop-color="#cb5eee"/><stop offset="1" stop-color="#4be1ec"/></linearGradient><linearGradient id="yRBnc7nCnyb" x1="63.5193" x2="378.912" y1="57.1541" y2="359.873" gradientUnits="userSpaceOnUse"><stop stop-color="#cb5eee"/><stop offset="1" stop-color="#4be1ec"/></linearGradient><linearGradient id="58JOvNqH6Wc" x1="63.5193" x2="378.912" y1="57.1541" y2="359.873" gradientUnits="userSpaceOnUse"><stop stop-color="#cb5eee"/><stop offset="1" stop-color="#4be1ec"/></linearGradient><linearGradient id="jk1bi2iGMld" x1="63.5193" x2="378.912" y1="57.1541" y2="359.873" gradientUnits="userSpaceOnUse"><stop stop-color="#cb5eee"/><stop offset="1" stop-color="#4be1ec"/></linearGradient><linearGradient id="wYrbOnRypHe" x1="63.5193" x2="378.912" y1="57.1541" y2="359.873" gradientUnits="userSpaceOnUse"><stop stop-color="#cb5eee"/><stop offset="1" stop-color="#4be1ec"/></linearGradient><linearGradient id="6qT7f_8vZPf" x1="63.5193" x2="378.912" y1="57.1541" y2="359.873" gradientUnits="userSpaceOnUse"><stop stop-color="#cb5eee"/><stop offset="1" stop-color="#4be1ec"/></linearGradient><linearGradient id="cYH1ZSxHK3g" x1="63.5193" x2="378.912" y1="57.1541" y2="359.873" gradientUnits="userSpaceOnUse"><stop stop-color="#cb5eee"/><stop offset="1" stop-color="#4be1ec"/></linearGradient><linearGradient id="I_fim3sLJIh" x1="63.5193" x2="378.912" y1="57.1541" y2="359.873" gradientUnits="userSpaceOnUse"><stop stop-color="#cb5eee"/><stop offset="1" stop-color="#4be1ec"/></linearGradient><linearGradient id="aO9NuPktCNi" x1="63.5193" x2="378.912" y1="57.1541" y2="359.873" gradientUnits="userSpaceOnUse"><stop stop-color="#cb5eee"/><stop offset="1" stop-color="#4be1ec"/></linearGradient><linearGradient id="EckicD4pOIj" x1="63.5193" x2="378.912" y1="57.1541" y2="359.873" gradientUnits="userSpaceOnUse"><stop stop-color="#cb5eee"/><stop offset="1" stop-color="#4be1ec"/></linearGradient><linearGradient id="FUstskdddfk" x1="63.5193" x2="378.912" y1="57.1541" y2="359.873" gradientUnits="userSpaceOnUse"><stop stop-color="#cb5eee"/><stop offset="1" stop-color="#4be1ec"/></linearGradient><linearGradient id="QZVLsvTbNql" x1="63.5193" x2="378.912" y1="57.1541" y2="359.873" gradientUnits="userSpaceOnUse"><stop stop-color="#cb5eee"/><stop offset="1" stop-color="#4be1ec"/></linearGradient><linearGradient id="4ZCZprs5Qom" x1="63.5193" x2="378.912" y1="57.1541" y2="359.873" gradientUnits="userSpaceOnUse"><stop stop-color="#cb5eee"/><stop offset="1" stop-color="#4be1ec"/></linearGradient><linearGradient id="yNojKiB5wmn" x1="63.5193" x2="378.912" y1="57.1541" y2="359.873" gradientUnits="userSpaceOnUse"><stop stop-color="#cb5eee"/><stop offset="1" stop-color="#4be1ec"/></linearGradient><linearGradient id="9wVQ1E5TCFo" x1="63.5193" x2="378.912" y1="57.1541" y2="359.873" gradientUnits="userSpaceOnUse"><stop stop-color="#cb5eee"/><stop offset="1" stop-color="#4be1ec"/></linearGradient><linearGradient id="x_yq3Z2g13p" x1="63.5193" x2="378.912" y1="57.1541" y2="359.873" gradientUnits="userSpaceOnUse"><stop stop-color="#cb5eee"/><stop offset="1" stop-color="#4be1ec"/></linearGradient><linearGradient id="3lfwlm9qM-q" x1="63.5193" x2="378.912" y1="57.1541" y2="359.873" gradientUnits="userSpaceOnUse"><stop stop-color="#cb5eee"/><stop offset="1" stop-color="#4be1ec"/></linearGradient></defs></svg>