<svg xmlns="http://www.w3.org/2000/svg" width="430" height="430" fill="none" viewBox="0 0 430 430"><path fill="url(#Qj7h36_o61a)" d="M160.7 78.7c1 3.2-.8 6.5-3.9 7.5-17 5.4-32 14.501-44.7 27.201-10.6 10.6-18.8 23-24.3 36.7-.9 2.3-3.2 3.8-5.6 3.8-.8 0-1.5-.1-2.2-.4-3.1-1.2-4.6-4.7-3.3-7.8 6.2-15.3 15.2-29 27-40.7 13.9-13.9 31-24.3 49.6-30.2 3-1 6.4.8 7.4 3.9m227.8 309.201c-1.2 1.2-2.7 1.8-4.3 1.8-1.5 0-3-.6-4.2-1.7l-86.1-84.6c-28.9 26.8-65.8 40.3-102.8 40.3-38.7 0-77.4-14.7-106.9-44.2-58.9-58.9-58.9-154.8 0-213.8S239 26.8 298 85.7c57.4 57.4 58.9 150 4.4 209.2l86 84.6c2.4 2.2 2.4 6 .1 8.4m-99-97c54.3-54.3 54.3-142.5 0-196.8-27.1-27.1-62.8-40.7-98.4-40.7S119.8 67 92.7 94.1c-54.3 54.3-54.3 142.5 0 196.8s142.6 54.2 196.8 0"/><defs><linearGradient id="Qj7h36_o61a" x1="84.1754" x2="387.425" y1="85.7132" y2="388.963" gradientUnits="userSpaceOnUse"><stop stop-color="#cb5eee"/><stop offset=".4433" stop-color="#8C9FED"/><stop offset=".8155" stop-color="#5DCFEC"/><stop offset="1" stop-color="#4be1ec"/></linearGradient></defs></svg>