<svg xmlns="http://www.w3.org/2000/svg" width="430" height="430" fill="none" viewBox="0 0 430 430"><path fill="url(#7v8t2scK6ha)" d="M295 131.5c-10.217 0-18.5 8.283-18.5 18.5s8.283 18.5 18.5 18.5 18.5-8.283 18.5-18.5-8.283-18.5-18.5-18.5"/><path fill="url(#8b3UnbqGnfb)" d="M280 179.5c-12.979 0-23.5 10.521-23.5 23.5v10a3.5 3.5 0 0 0 3.5 3.5h70a3.5 3.5 0 0 0 3.5-3.5v-10c0-12.979-10.521-23.5-23.5-23.5z"/><path fill="url(#90QLaTxSC6c)" d="M347.5 140a7.5 7.5 0 1 0 0-15 7.5 7.5 0 0 0 0 15"/><path fill="url(#fOaY5Uk9HRd)" d="M295 266.5c-10.217 0-18.5 8.283-18.5 18.5s8.283 18.5 18.5 18.5 18.5-8.283 18.5-18.5-8.283-18.5-18.5-18.5"/><path fill="url(#17pxAnHScCe)" d="M280 314.5c-12.979 0-23.5 10.521-23.5 23.5v10a3.5 3.5 0 0 0 3.5 3.5h70a3.5 3.5 0 0 0 3.5-3.5v-10c0-12.979-10.521-23.5-23.5-23.5z"/><path fill="url(#IhdgpzRrKvf)" d="M355 267.5a7.5 7.5 0 1 1-15 0 7.5 7.5 0 0 1 15 0"/><path fill="url(#iT_vYbRfzOg)" fill-rule="evenodd" d="M109 210c0-14.359 11.641-26 26-26s26 11.641 26 26-11.641 26-26 26-26-11.641-26-26m26-14c-7.732 0-14 6.268-14 14s6.268 14 14 14 14-6.268 14-14-6.268-14-14-14" clip-rule="evenodd"/><path fill="url(#kVA5Enrvf_h)" fill-rule="evenodd" d="M120 244c-19.882 0-36 16.118-36 36v10a6 6 0 0 0 6 6h90a6 6 0 0 0 6-6v-10c0-19.882-16.118-36-36-36zm-24 36c0-13.255 10.745-24 24-24h30c13.255 0 24 10.745 24 24v4H96z" clip-rule="evenodd"/><path fill="url(#cCRDjSq55ti)" d="M195 132.5a7.5 7.5 0 1 1-15 0 7.5 7.5 0 0 1 15 0"/><path fill="url(#srBgm0abH_j)" d="M150.298 72.5a7.5 7.5 0 0 0 0 15h.1a7.5 7.5 0 0 0 0-15z"/><path fill="url(#yccvCrjj4Yk)" d="M82.5 80a7.5 7.5 0 0 1 7.5-7.5h.1a7.5 7.5 0 0 1 0 15H90a7.5 7.5 0 0 1-7.5-7.5"/><path fill="url(#OLrqbILHu3l)" d="M120.1 72.5a7.5 7.5 0 0 0 0 15h.198a7.5 7.5 0 0 0 7.5-7.5 7.5 7.5 0 0 0-7.5-7.5z"/><path fill="url(#dhXo7SS3rTm)" fill-rule="evenodd" d="M75 49c-14.36 0-26 11.64-26 26v280c0 14.359 11.64 26 26 26h280c14.359 0 26-11.641 26-26V75c0-14.36-11.641-26-26-26zm294 185V111H221v123zm-148 12h148v109c0 7.732-6.268 14-14 14H221zm-12-135H61v244c0 7.732 6.268 14 14 14h134zm160-12H61V75c0-7.732 6.268-14 14-14h280c7.732 0 14 6.268 14 14z" clip-rule="evenodd"/><defs><linearGradient id="7v8t2scK6ha" x1="57.3265" x2="372.715" y1="57.3247" y2="372.713" gradientUnits="userSpaceOnUse"><stop stop-color="#cb5eee"/><stop offset="1" stop-color="#4be1ec"/></linearGradient><linearGradient id="8b3UnbqGnfb" x1="57.3265" x2="372.715" y1="57.3247" y2="372.713" gradientUnits="userSpaceOnUse"><stop stop-color="#cb5eee"/><stop offset="1" stop-color="#4be1ec"/></linearGradient><linearGradient id="90QLaTxSC6c" x1="57.3265" x2="372.715" y1="57.3247" y2="372.713" gradientUnits="userSpaceOnUse"><stop stop-color="#cb5eee"/><stop offset="1" stop-color="#4be1ec"/></linearGradient><linearGradient id="fOaY5Uk9HRd" x1="57.3265" x2="372.715" y1="57.3247" y2="372.713" gradientUnits="userSpaceOnUse"><stop stop-color="#cb5eee"/><stop offset="1" stop-color="#4be1ec"/></linearGradient><linearGradient id="17pxAnHScCe" x1="57.3265" x2="372.715" y1="57.3247" y2="372.713" gradientUnits="userSpaceOnUse"><stop stop-color="#cb5eee"/><stop offset="1" stop-color="#4be1ec"/></linearGradient><linearGradient id="IhdgpzRrKvf" x1="57.3265" x2="372.715" y1="57.3247" y2="372.713" gradientUnits="userSpaceOnUse"><stop stop-color="#cb5eee"/><stop offset="1" stop-color="#4be1ec"/></linearGradient><linearGradient id="iT_vYbRfzOg" x1="57.3265" x2="372.715" y1="57.3247" y2="372.713" gradientUnits="userSpaceOnUse"><stop stop-color="#cb5eee"/><stop offset="1" stop-color="#4be1ec"/></linearGradient><linearGradient id="kVA5Enrvf_h" x1="57.3265" x2="372.715" y1="57.3247" y2="372.713" gradientUnits="userSpaceOnUse"><stop stop-color="#cb5eee"/><stop offset="1" stop-color="#4be1ec"/></linearGradient><linearGradient id="cCRDjSq55ti" x1="57.3265" x2="372.715" y1="57.3247" y2="372.713" gradientUnits="userSpaceOnUse"><stop stop-color="#cb5eee"/><stop offset="1" stop-color="#4be1ec"/></linearGradient><linearGradient id="srBgm0abH_j" x1="57.3265" x2="372.715" y1="57.3247" y2="372.713" gradientUnits="userSpaceOnUse"><stop stop-color="#cb5eee"/><stop offset="1" stop-color="#4be1ec"/></linearGradient><linearGradient id="yccvCrjj4Yk" x1="57.3265" x2="372.715" y1="57.3247" y2="372.713" gradientUnits="userSpaceOnUse"><stop stop-color="#cb5eee"/><stop offset="1" stop-color="#4be1ec"/></linearGradient><linearGradient id="OLrqbILHu3l" x1="57.3265" x2="372.715" y1="57.3247" y2="372.713" gradientUnits="userSpaceOnUse"><stop stop-color="#cb5eee"/><stop offset="1" stop-color="#4be1ec"/></linearGradient><linearGradient id="dhXo7SS3rTm" x1="57.3265" x2="372.715" y1="57.3247" y2="372.713" gradientUnits="userSpaceOnUse"><stop stop-color="#cb5eee"/><stop offset="1" stop-color="#4be1ec"/></linearGradient></defs></svg>